<svg version="1" xmlns="http://www.w3.org/2000/svg" width="1200" height="1200" viewBox="0 0 900.000000 900.000000"><path d="M582 52c0 .5.5 1 1 1 .6 0 1-.5 1-1 0-.6-.4-1-1-1-.5 0-1 .4-1 1zM158.5 54c-1.1.4-3 1-4.2 1.4-1.2.5-2.7 2-3.3 3.6-.6 1.5-2.5 4-4.1 5.6-1.6 1.5-2.9 3.5-2.9 4.5 0 .9-.7 2.2-1.5 2.9-.8.7-1.5 2.1-1.5 3.1s-.9 4.2-2.1 7.1c-1.2 3.1-1.8 6.2-1.4 7.6.4 1.7-.2 3.6-2 6.2-1.4 2-3 6.1-3.5 9.1-2.3 12.7-2.9 17.5-2.4 19.5.3 1.2.1 3.2-.6 4.3-2 3.8-2.4 13.7-.6 17.2.9 1.8 1.6 3.8 1.6 4.6 0 1.7-2 1.7-2 0 0-.6-.5-.4-1.1.6-1.1 2-1.3 28.2-.2 30 .4.6.7 3.7.7 6.9.1 4.8.5 6 2.3 7.3 1.2.9 2.8 2.2 3.6 3 .8.8 1.7 1.1 2.1.8.3-.4.6-.1.6.5 0 .7.6 1.2 1.4 1.2.8 0 1.8.9 2.1 2 .4 1.3 1.5 2 3.3 2 1.5 0 3.9 1.1 5.4 2.5 2.4 2.2 3 2.4 4.8 1.3 2.4-1.5 2.6-3.1.5-4.8-2.2-1.8-1.8-5.1.8-8.4 2.3-2.8 2.4-2.9 5-1.1 2.2 1.4 2.7 2.5 2.7 5.6 0 2.6.5 4.2 1.5 4.5.8.4 1.5 1.2 1.5 2s.4 1.4.9 1.4 1.3 1 1.7 2.2c.4 1.3.9 2.5 1.3 2.8 2.3 1.8 5.7 8.3 13.6 25.5 1 2.2 3.6 5.3 5.7 6.8 3.9 2.7 6.3 7 7.8 13.4.9 3.8 1 3.8-3.7 1.8-4.7-2-4.6-2-6.7 1.9-1.7 3.1-2.2 3.4-8.4 4-5.7.5-6.9.3-8.2-1.1-2.6-3-7.8-6.3-10.8-6.9-1.6-.3-4.2-1.7-5.7-3-2.7-2.3-4.4-2.9-7.2-2.5-.7.1-1.3-.4-1.3-1.1 0-.9-.3-.9-1 .2-1.3 2-1.3 9.7 0 10.5.6.4.8 1.1.5 1.6-1.4 2.2 1.3 4.5 10 8.7 2.2 1 5.8 3.5 7.9 5.5 2.1 2.1 5.6 4.2 7.7 4.9 3.5 1 4 .9 5.9-1.3 1.1-1.3 2.6-3.8 3.4-5.5.7-1.7 2-3.1 2.7-3.2 12.9-1.8 12.3-1.6 13.9-4.9 2.1-4.5 3.1-4 5.9 2.9.6 1.6 1.6 2.8 2.3 2.8.8 0 2.1-1.2 3-2.8 1.3-2 1.8-2.2 1.8-1 0 1.1.8 1.8 2 1.8 1.5 0 2.1.9 2.6 4 .4 2.2 1 4 1.5 4s1.2 0 1.7.1c1 .1 3.1 4.1 3.2 6.1 0 2.4 1.2 2.3 3.3-.2 1.1-1.4 2.9-2 5.6-2 2.3 0 4.4-.6 5.1-1.6.8-.8 3-2.2 4.9-3 2-.8 5.2-3.2 7.1-5.3 2.9-3.2 4.4-4 8.8-4.6 4.6-.6 6-1.4 10.4-5.7 4.6-4.6 5-5.2 4.5-8.5-.4-2-1.1-3.9-1.7-4.3-1-.6-.3-5.8 1.5-11.8.5-1.4.3-2.2-.4-2.2-.6 0-1.1.6-1.1 1.4 0 1.4-7.7 3.9-9.2 3-1.1-.7 3.3-5.4 5.3-5.4 1.8 0 4.1-2.3 3.7-3.6-.7-2 1.8-1.5 2.7.5.5 1.1 1.4 2.1 2 2.1.5 0 2.1 1.8 3.5 4 1.3 2.2 2.8 4 3.2 4 .4 0 1.7.9 2.9 2.1 2.3 2.3 3.9 2.1 5.4-.7.6-1 2.5-3.3 4.3-5.1 1.7-1.7 3.2-3.8 3.2-4.5 0-.8.8-2.3 1.8-3.4.9-1 2.5-3.1 3.5-4.7 1-1.5 2.6-2.7 3.6-2.7 2.6 0 21.9-20.5 23.8-25.3.8-2 2.1-3.7 2.8-3.7 2.2 0 5-3.4 7.3-9 2.6-6.5 2.7-8.7.7-11.1-2.3-2.5-8.2-.9-11.5 3.1-1.8 2.2-3.1 2.9-4.5 2.5-1.5-.4-1.4-.3.3.6 1.2.7 2 1.7 1.8 2.3-.3.6-1 2.8-1.7 4.8-1.2 3.6-1.4 3.8-5.5 3.8-3.4 0-5.1-.7-7.7-3-1.9-1.7-3.8-3-4.2-3-.4 0-2.7-1.8-5.1-4-2.4-2.2-4.8-4-5.3-4-.6 0-1.5-1.6-2-3.6-1.5-5.3-5.1-10.2-8.1-10.7-2.8-.6-10-7.3-10-9.4 0-1.9-2.1-5.3-4.9-7.8-1.6-1.4-2.6-3.8-3.1-6.6-.3-2.6-1.1-4.3-1.8-4.2-.6.2-1.4-.8-1.8-2.2-.3-1.4-1.2-2.5-1.9-2.5-.6 0-2-.9-3-2-2.1-2.3-5.7-2.6-7.5-.6-.9 1.2-.9 3.2.1 9.2.8 4.3 1.8 8.1 2.4 8.6.5.5 1.9 1.6 3.1 2.6 1.9 1.6 3.6 5.6 3.9 9.2.1.8.4 3.1.9 5 .4 1.9.8 4.2.9 5.1.2.9 1 2.4 1.9 3.3 2.3 2.2 3.2 5.6 2 6.8-2.1 2.1 8.4 18.8 11.7 18.8.6 0 1.1.6 1.1 1.4 0 .8.6 1.6 1.3 1.9.8.3.6.9-.7 1.9-1.5 1.2-1.7 1.8-.7 3.6.8 1.4.8 2.2.1 2.2-.5 0-1 .6-1 1.2 0 .7-1.6 2.7-3.6 4.5-3.2 2.8-3.6 3.6-3.2 7.1.4 4.3-1.1 6.5-3.7 5.6-.8-.4-1.8-1.7-2.1-3-.5-1.9-1.1-2.3-2.5-1.9-2.6.9-5.9-.3-5.9-2.1s-.9-1.8-3.1.2c-1.7 1.5-2.1 1.5-5.3-.5-2.5-1.6-3.3-2.7-2.9-4.1.5-1.8-3.7-8.6-6.4-10.3-5.8-3.7-4.7-6.3 3.3-7.3 4.5-.5 5.2-.8 3.8-1.8-1.4-1.1-1.4-1.4-.1-2.4.8-.7 1.9-1.2 2.3-1.1 3.1.5 3.5-.3 3.3-5.9-.2-7.6-.7-9.2-3-10.1-1.9-.7-1.9-.8.5-4.4 1.4-2 2.1-3.7 1.5-3.7-.5 0-2.4-1.6-4.1-3.5-2.4-2.8-3.3-3.3-4.4-2.4-.8.6-1.4 1.8-1.4 2.5 0 2-2.4 1.7-4.3-.4-2.1-2.3-2.2-3.8-.2-4.6 4-1.5-1.2-9.3-7.9-11.7-2-.7-3.6-1.6-3.6-2 0-.4-.8-.5-1.9-.2-1 .3-2.2 0-2.5-.6-.5-.7.3-1.1 1.8-1.1 3.7 0 3.5-3.5-.1-4.8l-2.8-.9 2.4-.8c1.5-.4 2.6-.3 3.1.5.6.9.9.9 1.6-.1.4-.7.3-1.4-.2-1.6-3.4-1.2-6-3.2-7.4-5.8-2-3.6-8.5-5.9-10-3.5-.9 1.4-1.1 1.1-3.6-6-.4-1.2-.9-1-2.2.8l-1.8 2.3-2.1-2.1c-1.9-1.7-3.6-2-10.5-2-7.8-.1-8.5-.2-11.5-3-1.8-1.6-3.3-3.4-3.3-3.9s-1.2-1.2-2.7-1.4c-2-.3-1.5-.4 1.5-.6 2.3 0 4.2-.6 4.2-1.1 0-.6 1.2-1 2.6-1 2.1 0 2.5-.4 2.2-2.3-.2-1.6-.9-2.2-2.5-2.1-3.5.1-3-4.1.8-7.6 2.6-2.3 3-3.3 2.5-5.6-.4-1.5-.3-3 .3-3.3 1.3-.8-3.2-10.1-6.9-13.9-2.4-2.6-2.8-3.6-2.3-6.6.3-2.1 1.2-3.6 2.2-3.9.9-.2-.3-.7-2.6-1.1-2.4-.4-4.3-1.2-4.3-1.7 0-1.2-3.2-4.9-4.4-4.9-.5 0-1.4-.6-2-1.4-.7-.8-1.9-1-3.1-.6zm8.8 11.2c.2.7.2 2.1-.1 3.1-.3 1.4-.7 1.5-1.8.6-1.8-1.5-1.8-4.9 0-4.9.8 0 1.6.6 1.9 1.2zm19.1 66.9c-.7 1.1-3.4 1.2-3.4.1 0-1.4 1.1-2.1 2.6-1.5.8.3 1.1.9.8 1.4zm-32.8 9.2c.8-.3 1.7.5 2.4 2.1.5 1.4 1.6 2.6 2.4 2.6 1.7 0 2.8 2.4 2 4.5-.7 1.8-1.8 1.9-4.2.5-.9-.5-3-1.5-4.6-2-2.1-.8-2.7-1.5-2.3-3 .3-1.1-.1-2.1-.9-2.4-.8-.3-1.4-1-1.4-1.5 0-1.1 4.3-1.9 4.8-.9.2.4 1 .4 1.8.1zm-9.1 10.7c.3.5.1 1-.4 1-.6 0-1.1-.5-1.1-1 0-.6.2-1 .4-1 .3 0 .8.4 1.1 1zm-1.5 8c.8 1.1 2.5 2 3.7 2 1.3 0 2.3.4 2.3 1 0 1.5-3.7 3.1-5.5 2.4-.9-.4-2.6-.7-3.8-.8-1.5-.1-2.2-.8-2.2-2.1 0-1.4.6-1.9 2-1.8 1.1.1 1.4 0 .8-.3-.7-.3-1.3-1-1.3-1.5 0-1.6 2.5-.9 4 1.1zm15 19c0 2.3-2.4 4.2-4.4 3.4-2-.8-2-.8 0-4.5 1.2-2.5 1.8-2.8 3-1.8.8.6 1.4 1.9 1.4 2.9zm2.4 9.2c.9 3.5.8 3.8-1.9 3.8s-3.1-1-1.5-4.1c1.4-2.5 2.6-2.4 3.4.3zm103.6 59c0 1.8-.2 2-.9.8-.6-.8-.7-1.8-.5-2.2.9-1.4 1.4-.9 1.4 1.4zM566.6 73.5c.4.8.8 1.5 1 1.5.2 0 .4-.7.4-1.5s-.4-1.5-1-1.5c-.5 0-.7.7-.4 1.5zM577.2 106.5c-.6 1.4-1.9 2.5-2.8 2.5-1.2 0-1.5.6-1 2.2.3 1.3.6 2.6.6 2.9 0 .4.9.9 2.1 1.2 1.2.3 1.8 1 1.5 1.5-1 1.7 2.1 2.1 4.3.6 3.8-2.7 4.5-5.2 2.5-9.5-2.1-4.7-5.4-5.3-7.2-1.4zM565.2 118.9c-1.5 1.2-2.2 3-2.2 5.4 0 3-.5 3.7-3 4.9-3.2 1.4-4 2.8-1.5 2.8.8 0 1.5-.4 1.5-.9s.7-1.1 1.4-1.4c1-.4 1.3-.1 1 .8-.6 1.4 4.2 4.5 7.1 4.5 2.4 0 8.3-4.2 9.5-6.8 1.6-3.7 1.3-6.2-1-6.2-1.1 0-2-.5-2-1 0-.6-.9-1-1.9-1-1 0-2.1-.7-2.5-1.5-.8-2.1-3.9-1.9-6.4.4zM602.6 147.9c-.8 1.3.3 3.9 3 6.9 2.3 2.4 2.4 2.4 2.4.4 0-1.1.5-2.4 1-2.7 1.7-1.1 1.1-2.4-2-4-3.4-1.8-3.7-1.8-4.4-.6zM872 204.7c0 2.4.4 3.3 1.7 3.3.9 0 2.5.8 3.5 1.7 1.4 1.3 2.1 1.4 2.7.5 1-1.6 8.1.4 8.1 2.3 0 .8.6 1.5 1.3 1.5.8 0 2.7 1.6 4.3 3.5 1.6 1.9 3.7 3.5 4.6 3.5 1.6 0 1.8-1 1.8-8 0-7.3-.2-8-2-8-1.1 0-2-.5-2-1.1 0-.8-2.4-.9-8-.4-5.1.5-8 .4-8-.3 0-.5-1.8-1.2-4-1.4-3.9-.3-4-.3-4 2.9z"/><path d="M135.8 207.4c-1.8 1.3-2.3 3.7-1.1 4.9 1 1.1 4.3-2.4 4.3-4.5s-.8-2.2-3.2-.4zM144 236.3c0 .8-.7 1.8-1.6 2.1-.9.4-1.4 1-1 1.4.4.4 1 .6 1.2.4.3-.1 1.2.5 2.1 1.4 1.5 1.5 1.8 1.5 3-.2 2-2.7 1.2-5.8-1.4-6.2-1.5-.2-2.3.2-2.3 1.1zM145.6 247.9c-1.8.7-1.8.8-.3 1.4 2.1.8 4.9-.2 4.1-1.4-.6-1-1.2-1-3.8 0zM271.7 250.6c-.9 1 .2 2.4 1.9 2.4.8 0 1.4-.7 1.4-1.5 0-1.5-2.1-2.1-3.3-.9zM773.5 268c-9.3 1.7-39 5.9-102 14.5-14.3 1.9-39 5.3-55 7.5-15.9 2.2-32.6 4.4-37 5-23.9 3-47.1 6.3-63.5 8.9-10.2 1.6-25.7 3.9-34.5 5.1-8.8 1.1-18.5 2.5-21.5 3s-12.7 1.9-21.5 3-25.7 3.4-37.5 5-28.7 3.8-37.5 5c-8.8 1.1-26.1 3.6-38.5 5.5-12.4 1.9-35.5 5.2-51.5 7.4-15.9 2.3-40 5.6-53.5 7.5-13.5 1.9-29.7 3.9-36 4.6-6.3.6-12.7 1.2-14.2 1.4-2.4.2-2.6-.1-2.3-3 .1-2 1.4-4.5 3.3-6.5 1.8-1.9 3.2-3.7 3.2-4.1 0-.3 1.2-2.1 2.7-3.8 2.1-2.6 2.7-4.3 2.7-8.6.1-3.6.5-5.4 1.4-5.4.6 0 1.2-1 1.2-2.1 0-1.8-.5-2.1-3-1.7-2 .3-3 0-3-.9 0-.7.4-1.3 1-1.3 1.6 0 3.9-5.5 3.3-7.9-.3-1.1 0-3.5.7-5.2 1.7-3.9.1-6-3-4.1-1.1.7-2 .9-2 .5 0-1-4.1-2.8-9.1-4.1-5.1-1.4-13.9.5-16.3 3.4-1.7 2.1-2 2.1-5.2.8-3.3-1.4-3.5-1.4-4.4 1.2-.6 1.5-.8 6.9-.4 12.9.4 8.5.3 10.5-1 11.8-.9.8-1.5 2.6-1.5 3.9.2 3.8-1.2 15.1-2.2 18.2-.7 2.2-.5 3.5.6 5.2 1.9 3 1.9 6.8 0 8.4-1.5 1.3-2.1 4.1-.7 3.9 2.1-.4 3.4.3 4.4 2.6.6 1.4 1.9 2.5 3 2.5 1 0 1.8.3 1.8.7.1.5.5 2.7.9 5.1.5 2.3.5 4.4.2 4.7-.4.2-9.2 1.7-19.6 3.4-10.4 1.7-19.3 3.5-19.9 4.1-1.4 1.4.9 19 2.6 20.2.7.4 2.4.6 3.8.3s10.5-1.6 20.3-2.9c9.8-1.3 18.1-2.7 18.4-3 .4-.3.1-4.7-.5-9.7-.7-4.9-1-9.3-.8-9.8.3-.4 2.4-.8 4.7-1 2.3-.1 4.5-.4 4.8-.6 1.7-1 98.4-15 108.5-15.7 4.8-.3 5-.2 5.7 2.7.4 1.6 1 5.5 1.3 8.5 1 8.6.7 8.4 12.7 6.7 5.7-.9 10.7-1.3 11-.9.3.4 1.2 4.6 1.9 9.5.6 4.8 1.6 9 2.1 9.2.5.3 4.7.1 9.5-.6 4.7-.6 8.9-.7 9.4-.3.4.5 1.4 5.4 2.2 10.9l1.4 10 4.5-.1c2.4 0 7.5-.2 11.4-.5l6.9-.4.8 4.7c.4 2.7 1.2 6.9 1.6 9.5l.8 4.8 3.9-.2c4.7-.3 28.7-3.4 53-6.9 9.4-1.3 20.4-2.9 24.5-3.4 4.1-.6 15.8-2.1 26-3.5s21-2.9 24-3.5c3-.5 8.1-1.2 11.2-1.6 8.4-.9 9-1.6 7.8-8.9-.5-3.3-1-7.4-1-9.1v-3l9.3-1.3c13-1.9 12.5-1.5 12.1-11.5-.2-4.6-.5-8.9-.6-9.6-.3-1.3-.3-1.3 9.2-3.1 3.6-.6 7-1.6 7.7-2.3 1-.9.9-3.4-.3-11.4-.9-5.7-1.3-10.6-1-10.9.3-.4 8.1-1.6 17.3-2.9 9.3-1.3 18.3-2.5 20-2.8 1.8-.3 3.5-.1 3.7.2.2.4 1 4.6 1.6 9.2.6 4.7 1.5 8.9 2 9.4.4.4 4.7.3 9.5-.4 4.9-.6 9.1-.7 9.6-.3.4.4 1.4 5 2 10 .7 5.1 1.6 9.8 2 10.5.9 1.4 12.5.3 44.9-4.6 5.8-.8 15.1-2 20.8-2.6 5.7-.5 15.6-1.9 22-3 11.3-1.9 26.8-4.3 49.7-7.6 6.1-.9 11.4-2 11.9-2.5.6-.6.5-4.9-.3-11.5-.7-5.8-1.1-10.8-.7-11.1.3-.3 5-1.1 10.5-1.7 5.6-.7 10.4-1.5 10.7-1.9.4-.4.1-4.8-.6-9.8-.6-5-.8-9.4-.4-9.9.5-.4 4.7-1.2 9.3-1.8 4.6-.6 8.7-1.5 9-2.1.4-.6-.5-10.4-2-21.7-2.5-19-3.5-22.8-5.9-22.3-.3.1-5 .9-10.5 1.9zm-112.1 40.2c.3 1.3 1 6.3 1.7 11.2l1.1 8.8 6.7-.8c3.6-.4 8.2-.8 10.1-.8l3.4-.1 1.3 9c.7 4.9 1.1 9.5.9 10-.2.6-4.4 1.6-9.2 2.3-10.7 1.4-10.9 1.3-11.9-9.1-.9-10.5-.5-10.2-12.1-8.7-5.5.7-10.3 1.6-10.8 2.1-.4.4-.2 4.8.5 9.9 1 7.8 1 9.3-.2 10.1-1.4.8-8.5 1.9-14.9 2.2l-3.5.2-1.1-6.5c-.7-3.6-1.2-8.1-1.3-10.1l-.1-3.6 5.3-.7c2.8-.4 7.2-.9 9.6-1.3l4.4-.6-.8-7.1c-.5-3.9-.9-9.1-.9-11.6l-.1-4.5 6.5-1.1c3.6-.6 8.4-1.2 10.7-1.3 3.7-.1 4.3.2 4.7 2.1zm-41.7 12.3c.6 4.4 1.2 9.4 1.2 11.1l.1 3.1-10.6 1.4c-10.4 1.5-10.7 1.4-11.5-.6-1.3-3.2-3.1-19.7-2.2-20.6 1.1-1.1 12.7-2.7 17.8-2.5l4 .1 1.2 8zm-237.2 26.7c.2 1.3 1 6.1 1.6 10.8.6 4.7 1.3 8.7 1.5 8.9.3.3 4.2 0 8.7-.7 12.9-1.9 13.5-1.8 14.1 2 .3 1.8 1 6.2 1.5 9.7.6 3.6.9 6.6.7 6.8-.6.7-21.7 3.5-22.2 3-.2-.2-1-4.4-1.6-9.3-.6-4.9-1.5-9.3-1.9-9.8-.8-.9-18.9 1.2-20.9 2.4-.8.5-.8 3.3.2 10.1l1.3 9.4 5.5-.3c3-.1 7.9-.8 10.8-1.3 3-.6 5.6-.9 5.8-.6.9.8 3.6 20.8 3.1 22.2-.8 1.9-20.6 4.2-21.7 2.5-.5-.7-1.4-5.7-2-11.2-1.4-11.2-.3-10.5-13.5-8.8-3.8.5-7.3.6-7.7.2-.4-.4-1.2-4.9-1.9-10.1l-1.2-9.3-6.6.7c-3.6.4-8.2 1-10.2 1.5-2.1.4-4.2.4-4.9 0-1.3-.8-4.4-19.4-3.6-21.5.5-1.4 15.7-3.9 19.7-3.3 2.2.3 2.5 1 3.9 10.8l1.5 10.5 4-.1c2.2 0 6.6-.4 9.9-.8l5.8-.8-.8-7.1c-.4-4-.8-9.2-.8-11.7l-.1-4.5 6.5-1.1c3.6-.7 8.4-1.2 10.7-1.3 3.6-.1 4.3.2 4.8 2.1zm50.9 35.6c.9 1.5 3 21.2 2.3 21.8-.8.8-20.8 3.6-21.4 3-.7-.7-3.5-21.7-3-22.3.6-.5 15.5-3 19.4-3.2 1.2-.1 2.4.2 2.7.7z"/><path d="M195.5 303c-.4.6.3 1 1.4 1 2.5 0 2.7-.6.6-1.3-.8-.4-1.7-.2-2 .3zM692 433c-1.1 1.1-2 2.7-2 3.5 0 .8-.4 1.5-1 1.5-.5 0-1-.9-1-2 0-1.5-.7-2-2.7-2.1-1.6-.1-4.1-.3-5.8-.5-1.6-.2-5.7.3-9 1.1-3.3.7-7.6 1.7-9.5 2-4.7.9-15.3 6-21.9 10.7-3 2.1-6 3.8-6.7 3.8-.7 0-2.5 1.6-4 3.5-1.4 1.9-3.2 3.5-3.8 3.5-.7 0-2.4 1.3-3.9 2.8-2.4 2.5-2.7 3.8-3.4 12.7-1 14.7-.5 19.2 3.2 26.1.9 1.7 1.3 4 .9 5.7-.4 1.8 0 3.7 1.1 5.4 1.4 2.1 1.5 2.9.4 4.9-1 1.9-1 2.7-.1 3.6.7.7 1.2 2 1.2 3s.3 1.8.8 1.9c.4 0 2.6.2 5 .4s4.6.5 4.8.8c.3.2 0 1.7-.6 3.3-1 2.4-.8 3 1 4.4l2.2 1.7-3.1 3.4-3.1 3.4 3 1.4c3.6 1.7 4.8 4.7 2.7 6.8-1.2 1.2-1.9 1.3-3.6.4-2.8-1.5-5.9.1-6.7 3.5-.9 3.6 2.8 7.4 7.3 7.4 3.7 0 3.9.4 1.8 4-.8 1.4-1.4 3.5-1.5 4.6 0 1.2-.7 2.7-1.5 3.4-1.3 1-1.9 1-3.3-.4-1-.9-2.7-1.6-3.8-1.6-1 0-2.5-.4-3.3-.9-2.2-1.4-4.1-.1-4.1 2.8 0 1.7 1.4 3.9 4 6.5 3.4 3.3 3.9 4.5 3.6 7.3-.3 3.2-1.4 4.9-5.9 9.1-5.3 4.9-7.4 6.2-10.3 6.2-5.3 0-11.8 3.5-14 7.5-1 1.9-2 3.5-2.2 3.5-.2 0-2-.8-4-1.9-10.5-5.3-13.1-6.2-17.3-6.1-2.4.1-7.8-.6-11.9-1.5-4.1-.9-9.3-1.9-11.5-2.2-2.2-.3-4.5-1-5.2-1.5-.7-.5-2-.7-3-.4-1 .3-2.9-.1-4.2-.8-1.8-1-3.4-1.1-5.9-.4-2.8.8-3.8.6-5.6-1-3.1-2.8-6.4-3.3-10.5-1.6-3.2 1.4-3.7 1.3-4.8-.2-.7-.9-1.4-2.1-1.5-2.6-.2-.6-2.1.1-4.3 1.4-2.2 1.2-5.3 3-7 3.8-2.7 1.3-3 1.9-2.6 5.5.4 4.5 1.1 5.2 6.4 6.1 2.8.5 3.7 1.1 3.3 2.1-.4.8.1 2.4.9 3.6.8 1.2 1.5 3.9 1.5 6.1v3.9l4.9-.7c4.6-.6 4.9-.5 5.5 1.9.5 2.1 1 2.4 3.6 1.8 2.5-.5 3-.2 3 1.5 0 1.1-.7 2.2-1.5 2.6-2 .7-1.9 3.2.1 4 3 1.1 8.6.6 11.5-1.1 2.8-1.6 3-1.6 5.9.5 2.4 1.8 3.8 2.1 6.5 1.6 4.3-.8 4.6.8.9 4.2l-2.5 2.4h4c3 0 4.4-.5 5.3-2 1.4-2.2 6.4-2.8 7.1-.8.3 1 .7 1 1.9 0 .9-.7 2.9-1.2 4.4-1 1.6.1 4.4-.7 6.3-1.6 3.2-1.7 3.6-1.7 4.6-.2.9 1.2 2.6 1.5 6.8 1.3 5.3-.2 5.7 0 10.1 4.3 2.5 2.5 4.6 5.1 4.6 5.7 0 1.6 1.2 1.7 2.7.2.8-.8 1.7-.8 3.2.1 1.8.9 2.8.7 5.5-.9 2.9-1.9 3.4-1.9 4.8-.5 2 2.1 5.2.5 7.2-3.5 1.2-2.2 2.4-2.9 5.8-3.4 2.4-.3 4.7-.2 5.2.3.4.4 2.3.2 4.2-.6 4.6-1.9 7.1-1.8 8.4.6.6 1.2 2.2 2.5 3.6 3 2.5 1 2.8 1.4 3.8 6.2.5 2.1 1.2 2.8 3.1 2.8 1.3 0 2.7.4 3 1 1.2 1.9 2.5 1 2.5-1.7 0-2 .3-2.4 1.1-1.6.6.6 1.8.9 2.5.6 1.9-.7 1.8-3.3-.1-3.3-.8 0-1.5-.5-1.5-1 0-.6 1.1-.8 2.7-.4 1.9.5 3 .2 4-1.2 1.2-1.6 1.5-1.7 2.3-.4 1.7 2.7 1.2 6.7-1 7.3-1.1.3-2 1-2 1.6 0 .6.9 1.1 2 1.1s2-.6 2-1.4c0-.8.7-1.7 1.6-2 .9-.4 1.4-1.3 1-2.1-.7-1.8 2.4-8.6 3.5-7.9.5.3 1.1 2.6 1.5 5.2.3 2.6 1.6 5.9 2.7 7.4l2.2 2.6 7-2.3 7-2.4v-4.3c0-4.7 1.8-7.1 4.8-6.2.9.3 1.7.2 1.8-.3.2-2.8 1.2-4.6 5.8-10.8 7.6-10.4 12.3-15.4 14.8-15.4 3.5-.1 7.3-1.9 7.3-3.5 0-.7 1.1-2.1 2.5-3 1.4-.9 2.5-2.3 2.5-3 0-.8 1.1-2.7 2.4-4.3 4.6-5.6 5.8-9 5.3-16.2-.2-3.6-.7-7.5-1.1-8.6-.6-1.7 0-2.3 3.6-4 5.8-2.7 6.5-6 2.6-13.4-1.5-2.9-2.5-5.8-2.2-6.3.3-.5 2.5-.8 4.7-.6 2.6.2 4.2-.1 4.2-.8 0-.6-1.9-3.2-4.2-5.9-4.7-5.2-5.2-6.5-2.5-6.5 1 0 2.7-.6 3.7-1.4 1.8-1.3 1.8-1.5.2-3-1-1.1-2.5-1.5-3.6-1.1-4 1.2-5.6-6.3-1.9-8.7l2.1-1.4-2.1-2c-1.1-1-2.3-3.1-2.7-4.7-.6-2.3-.4-2.7 1.5-2.7 1.8 0 2-.3 1.1-1.3-1.5-1.8-1.5-7-.1-13.9 1-4.9 1-6-.3-7.3-1.9-1.9-2.7-1.9-6.3 0-3.1 1.6-5.7 1.9-6.7.9-1.2-1.2 2.5-5.3 5.3-5.9 2.7-.6 3.2-1.4 5.6-9.3 1.8-5.9 2.5-10.1 2.2-13.2-.6-5.7-5.4-15.7-8.8-18.2-3.2-2.3-13-3.4-16-1.8-2 1.1-2.5.9-4.5-1.6-1.3-1.6-2.1-3.2-1.8-3.6.2-.5-.1-.8-.7-.8s-.9-.4-.5-.9c1.2-2.1-5.4-4.3-13.7-4.5-2.6-.1-5.3-.7-6-1.4-1.8-1.8-4.5-1.5-6.8.8zm-51 102c0 .5-.4 1-1 1-.5 0-1-.5-1-1 0-.6.5-1 1-1 .6 0 1 .4 1 1zm-1 24c0 1.1-.4 2-1 2-.5 0-1-.9-1-2s.5-2 1-2c.6 0 1 .9 1 2zm23.5 79c-.3.5-1.1 1-1.6 1-.6 0-.7-.5-.4-1 .3-.6 1.1-1 1.6-1 .6 0 .7.4.4 1zM895.7 472.1c-3.1 3.2-4.7 7.5-4.7 12.6 0 2.5-.5 3.3-1.7 3.4-1.5 0-1.4.2.4 1.1 1.3.6 2.5 1.9 2.8 2.9.5 1.3 5.1 3.9 7.1 3.9.2 0 .4-6.1.4-13.5s-.3-13.5-.7-13.5c-.5.1-2.1 1.4-3.6 3.1z"/><path d="M601.5 523.9c-.7 1.2 1.2 2.4 2.5 1.6 1.1-.7.4-2.5-1-2.5-.5 0-1.1.4-1.5.9zM618.7 533.7c-1.5 1.4-.7 5.3 1.1 5.3 1.9 0 4.6-3.6 3.7-5-.7-1.1-3.8-1.3-4.8-.3zM591.5 548.1c-.4.5-.4 2.1-.1 3.5.5 1.7 1.3 2.4 3.1 2.4 2.9 0 3.9-1.4 3.1-4.6-.5-1.7-1.3-2.4-3.1-2.4-1.3 0-2.7.5-3 1.1zM608 552.9c0 2.7 4.3 5.5 7 4.6 1.6-.5 2-1.3 1.8-3.3-.3-2.4-.8-2.7-4.5-3-3.8-.3-4.3-.1-4.3 1.7zM606 577.5c0 .8.5 1.5 1 1.5.6 0 1-.7 1-1.5s-.4-1.5-1-1.5c-.5 0-1 .7-1 1.5zM615.6 588.5c-.9 2.4.1 3.5 3.1 3.5 2.4 0 2.5-.1 1.1-2.2-1.9-2.8-3.4-3.3-4.2-1.3zM556.8 643.7c-2.7.7-2.2 2.3.7 2.3 1.6 0 2.5-.6 2.5-1.5 0-1.5-.2-1.6-3.2-.8zM578 648c0 .5.4 1 .9 1 .6 0 1.3-.5 1.6-1 .3-.6-.1-1-.9-1-.9 0-1.6.4-1.6 1zM567.2 650c0 1.4.2 1.9.5 1.2.2-.6.2-1.8 0-2.5-.3-.6-.5-.1-.5 1.3zM678.5 654.9c-.3.5-.1 1.2.5 1.6.5.3 1-.1 1-.9 0-1.8-.6-2.1-1.5-.7zM109.6 666.9c-1 1.5 3.4 3.5 4.7 2.2 1.2-1.2 1-1.6-2-2.5-1.2-.4-2.4-.2-2.7.3zM147 695.3c-1.4.6-2.8 1.6-3.2 2.1-.4.6-1.2.5-2.1-.2-1.6-1.4-9.7-.6-9.7.9 0 .5-.9.9-2 .9-3.3 0-2.3 1.5 2.5 3.9 4.1 2 4.6 2.1 7.4.6 1.7-.8 5-1.5 7.4-1.5 3.1 0 4.7-.5 5.1-1.5.3-.9 1.8-1.5 3.9-1.5 3.4 0 6.4-2 5-3.4-.4-.3-2.1-.4-3.9 0-1.8.3-3.4.1-3.8-.5-.9-1.4-3.4-1.3-6.6.2zM168 708c-1.4.5-5.1 1.6-8.2 2.5-3.2.9-6 2.1-6.4 2.6-.3.5-2.4.9-4.6.9-4.9 0-12 2-11.6 3.2.2.5.6.8.9.6 1-.6 3.9 3 3.9 4.9.1 3.8 2.6 5.6 8.3 5.7 3.3 0 6.1-.5 7.1-1.3 2.1-1.8 3.3-.7 1.6 1.4-1 1.2-1 1.9-.2 2.7.9.9 1.2.7 1.2-1 0-1.6.6-2.2 2.3-2.2 2.5 0 5.7-4.4 5.7-7.9 0-1.8.6-2.1 3.9-2.1 5.9 0 6.7-1.8 3-6.8-1.7-2.3-3.4-4.2-3.7-4.1-.4.1-1.8.5-3.2.9zM168 729c0 .5-.7 1-1.6 1-2.9 0-.8 2.4 2.7 3.2 4 .8 5 .1 4.3-3-.4-1.5-1.4-2.2-3-2.2-1.3 0-2.4.4-2.4 1zM176.9 734.4c1.6 1.9 4.4 2.1 3.9.3-.3-.6-1.5-1.4-2.8-1.5-2.1-.3-2.2-.2-1.1 1.2z"/></svg>